<?xml version="1.0" encoding="UTF-8" standalone="no"?>

<svg
	xmlns="http://www.w3.org/2000/svg" version="1.1"
	xmlns:freecad="http://www.freecadweb.org/wiki/index.php?title=Svg_Namespace"
	width="594mm"
	height="420mm"
	viewBox="0 0 594 420">
	<!-- Working space 20 10 584 410 -->
	<!-- Title block 404 350 584 410 -->
	<g>
		<rect
			id="drawing-border"
			style="fill:none;stroke:#000000;stroke-width:0.35;stroke-linecap:miter;stroke-miterlimit:4"
			width="564"
			height="400"
			x="20"
			y="10" />
			<!-- width-30, height-20 -->
		<g
			transform="translate(384,123)">
			<!-- A4 Portrait based for other formats width-210, height-297 -->
			<!--        page       rect   translation
			               w    h    rw   rh   tx   ty
			        A4-P  210  297  180  277    0    0
			        A3-L  420  297  390  277  210    0
			        A2-L  594  420  564  400  384  123
			        A1-L  841  594  811  574  631  297
			        A0-L 1189  841 1159  821  979  544
			-->
			<g
				id="titleblock-structure"
				style="fill:none;stroke:#000000;stroke-width:0.35;stroke-linecap:miter;stroke-miterlimit:4">
				<rect width="180" height="60" x="20" y="227" />
				<path d="m 20,239 h 180" />
				<path d="m 80,227 v 12" />
				<path d="m 140,239 v 48" />
				<path d="m 160,239 v 12" />
				<path d="m 180,239 v 12" />
				<path d="m 140,251 h 60" />
				<path d="m 140,275 h 60" />
				<path d="m 180,275 v 12" />
			</g>
			<g
				id="titleblock-text-non-editable"
				style="font-size:3px;text-anchor:start;fill:#000000;font-family:osifont"
				xml:space="preserve">
				<text x="21" y="230">Created by:</text>
				<text x="81" y="230">Title:</text>
				<text x="21" y="242">Supplementary information:</text>
				<text x="141" y="242">Size:</text>
				<text x="161" y="242">Sheet:</text>
				<text x="181" y="242">Scale:</text>
				<text x="141" y="254">Part number:</text>
				<text x="141" y="266">Drawing number:</text>
				<text x="141" y="278">Date:</text>
				<text x="181" y="278">Revision:</text>
			</g>
			<g
				id="titleblock-text-editable"
				style="font-size:5px;text-anchor:middle;fill:#000000;font-family:osifont"
				xml:space="preserve">
				<text freecad:editable="AUTHOR NAME" x="50" y="236"><tspan>Mathieu Pillet</tspan></text>
				<text freecad:editable="DRAWING TITLE" x="140" y="236"><tspan>Stage 0 - Front</tspan></text>
				<text freecad:editable="SI-1" x="80" y="248"><tspan></tspan></text>
				<text freecad:editable="SI-2" x="80" y="255"><tspan></tspan></text>
				<text freecad:editable="FreeCAD DRAWING" x="80" y="262"><tspan></tspan></text>
				<text freecad:editable="SI-4" x="80" y="269"><tspan></tspan></text>
				<text freecad:editable="SI-5" x="80" y="276"><tspan></tspan></text>
				<text freecad:editable="SI-6" x="80" y="283"><tspan></tspan></text>
				<text freecad:editable="FC-SI" x="150" y="248"><tspan>A2</tspan></text>
				<text freecad:editable="FC-SH" x="170" y="248"><tspan>X / Y</tspan></text>
				<text freecad:editable="FC-SC" x="190" y="248"><tspan>1:1</tspan></text>
				<text freecad:editable="PN" x="170" y="260"><tspan>1</tspan></text>
				<text freecad:editable="DN" x="170" y="272"><tspan>1</tspan></text>
				<text freecad:editable="FC-DATE" x="160" y="284"><tspan>07/02/2019</tspan></text>
				<text freecad:editable="FC-REV" x="190" y="284"><tspan>1.1</tspan></text>
			</g>
			<!-- Set display:none to hide FreeCAD Logo -->
			<g
				style="display:inline"
				id="freecad-logo"
				transform="translate(128.5,276)"
				fill-rule="evenodd"
				stroke="#000"
				stroke-width="0.35"
				fill="none">
					<path d="m0.1524 0.15254v8.8549h1.9744v-3.4652h1.396v-1.3661h-1.396v-1.4745h3.4391v-2.5441l-5.4135-0.005z"/>
					<path d="m7.7927 3.4504-0.50715-0.176-0.48387-1.2366-0.76115 0.04-0.34718 1.2787-0.4859 0.23269-1.2119-0.53015-0.51188 0.56882 0.65892 1.1485-0.18006 0.50567-1.2366 0.48387 0.044064 0.76263 1.2787 0.34718 0.23269 0.4859-0.53421 1.2104 0.56882 0.51188 1.1485-0.65891 0.50973 0.18155 0.4798 1.2351 0.7667-0.04258 0.34311-1.2802 0.4859-0.23269 1.2145 0.5357 0.51188-0.56882-0.65891-1.1485 0.17748-0.51122 1.2351-0.4798-0.03851-0.76521-1.2802-0.34311-0.23269-0.4859 0.53163-1.216-0.56881-0.51184zm-0.5715 1.2244 0.23576 0.13679 0.20426 0.18519 0.16353 0.22101 0.11763 0.24572 0.06916 0.26489 0.01146 0.27146-0.03921 0.27139-0.08948 0.25764-0.14234 0.23834-0.17964 0.20167-0.22101 0.16353-0.24572 0.11763-0.26489 0.06916-0.27295 0.01553-0.2719-0.04-0.2576-0.089-0.2383-0.143-0.2002-0.183-0.165-0.217-0.1177-0.246-0.0676-0.269-0.0156-0.273 0.039206-0.2714 0.089484-0.25764 0.14085-0.23427 0.18113-0.20574 0.22101-0.16352 0.24572-0.11763 0.26895-0.06768 0.27147-0.01146 0.27139 0.03921 0.25764 0.08948z"/>
			</g>
		</g>
	</g>
<g id="stage0f_view"
   transform="rotate(0,212,212) translate(212,212) scale(1,1)"
  >
<g   fill="none"
   stroke="rgb(0, 0, 0)"
   stroke-linecap="butt"
   stroke-linejoin="miter"
   stroke-width="0.350000"
   transform="scale(1,-1)"
  >
<path d="M37.3553 -12.3639 A5 5 0 0 0 32.9494 -15" /><path id= "2" d=" M 37.3553 -12.3639 L 81.2481 69.4456 " />
<path d="M81.2481 69.4456 A15 15 0 0 0 105.072 72.9605" /><path id= "4" d=" M 105.072 72.9605 L 124.424 53.6091 " />
<path d="M124.424 53.6091 A5 5 0 0 0 125.888 50.0736" /><path id= "6" d=" M 73.9054 119.215 L 19.4059 17.6361 " />
<path d="M73.9054 119.215 A15 15 0 0 0 97.7297 122.73" /><path d="M19.4059 17.6361 A5 5 0 0 0 15 15" /><path id= "9" d=" M 154.424 66.0355 L 97.7297 122.73 " />
<path d="M154.424 66.0355 A5 5 0 0 0 155.888 62.5" /><path id= "11" d=" M 155.888 37.5 L 155.888 62.5 " />
<path d="M155.888 37.5 A5 5 0 0 0 150.888 32.5" /><path id= "13" d=" M 130.888 32.5 L 150.888 32.5 " />
<path d="M130.888 32.5 A5 5 0 0 0 125.888 37.5" /><path id= "15" d=" M 125.888 50.0736 L 125.888 37.5 " />
<path d="M-37.3553 -12.3639 A5 5 0 0 1 -32.9494 -15" /><path id= "17" d=" M -37.3553 -12.3639 L -81.2481 69.4456 " />
<path d="M-81.2481 69.4456 A15 15 0 0 1 -105.072 72.9605" /><path id= "19" d=" M -105.072 72.9605 L -124.424 53.6091 " />
<path d="M-124.424 53.6091 A5 5 0 0 1 -125.888 50.0736" /><path id= "21" d=" M -73.9054 119.215 L -19.4059 17.6361 " />
<path d="M-73.9054 119.215 A15 15 0 0 1 -97.7297 122.73" /><path d="M-19.4059 17.6361 A5 5 0 0 1 -15 15" /><path id= "24" d=" M -154.424 66.0355 L -97.7297 122.73 " />
<path d="M-154.424 66.0355 A5 5 0 0 1 -155.888 62.5" /><path id= "26" d=" M -155.888 37.5 L -155.888 62.5 " />
<path d="M-155.888 37.5 A5 5 0 0 1 -150.888 32.5" /><path id= "28" d=" M -130.888 32.5 L -150.888 32.5 " />
<path d="M-130.888 32.5 A5 5 0 0 1 -125.888 37.5" /><path id= "30" d=" M -125.888 50.0736 L -125.888 37.5 " />
<path id= "31" d=" M 123.2 68.9752 L 130.271 61.9042 " />
<path id= "32" d=" M 130.271 61.9042 L 137.342 68.9752 " />
<path id= "33" d=" M 130.271 76.0463 L 123.2 68.9752 " />
<path id= "34" d=" M 137.342 68.9752 L 130.271 76.0463 " />
<path id= "35" d=" M 108.577 97.7405 L 101.506 104.812 " />
<path id= "36" d=" M 101.506 104.812 L 94.4347 97.7405 " />
<path id= "37" d=" M 101.506 90.6694 L 108.577 97.7405 " />
<path id= "38" d=" M 94.4347 97.7405 L 101.506 90.6694 " />
<path id= "39" d=" M -123.2 68.9752 L -130.271 61.9042 " />
<path id= "40" d=" M -130.271 61.9042 L -137.342 68.9752 " />
<path id= "41" d=" M -130.271 76.0463 L -123.2 68.9752 " />
<path id= "42" d=" M -137.342 68.9752 L -130.271 76.0463 " />
<path id= "43" d=" M -108.577 97.7405 L -101.506 104.812 " />
<path id= "44" d=" M -101.506 104.812 L -94.4347 97.7405 " />
<path id= "45" d=" M -101.506 90.6694 L -108.577 97.7405 " />
<path id= "46" d=" M -94.4347 97.7405 L -101.506 90.6694 " />
<circle cx ="87.1231" cy ="112.123" r ="2" /><circle cx ="-87.1231" cy ="112.123" r ="2" /><circle cx ="25" cy ="-2.41354e-029" r ="2" /><circle cx ="-25" cy ="-2.41354e-029" r ="2" /><circle cx ="140.888" cy ="47.5" r ="2" /><circle cx ="-140.888" cy ="47.5" r ="2" /><path id= "53" d=" M 15 15 L -15 15 " />
<path id= "54" d=" M 32.9494 -15 L -32.9494 -15 " />
</g>
</g>



</svg>

