<?xml version="1.0" encoding="UTF-8" standalone="no"?>

<svg
	xmlns="http://www.w3.org/2000/svg" version="1.1"
	xmlns:freecad="http://www.freecadweb.org/wiki/index.php?title=Svg_Namespace"
	width="594mm"
	height="420mm"
	viewBox="0 0 594 420">
	<!-- Working space 20 10 584 410 -->
	<!-- Title block 404 350 584 410 -->
	<g>
		<rect
			id="drawing-border"
			style="fill:none;stroke:#000000;stroke-width:0.35;stroke-linecap:miter;stroke-miterlimit:4"
			width="564"
			height="400"
			x="20"
			y="10" />
			<!-- width-30, height-20 -->
		<g
			transform="translate(384,123)">
			<!-- A4 Portrait based for other formats width-210, height-297 -->
			<!--        page       rect   translation
			               w    h    rw   rh   tx   ty
			        A4-P  210  297  180  277    0    0
			        A3-L  420  297  390  277  210    0
			        A2-L  594  420  564  400  384  123
			        A1-L  841  594  811  574  631  297
			        A0-L 1189  841 1159  821  979  544
			-->
			<g
				id="titleblock-structure"
				style="fill:none;stroke:#000000;stroke-width:0.35;stroke-linecap:miter;stroke-miterlimit:4">
				<rect width="180" height="60" x="20" y="227" />
				<path d="m 20,239 h 180" />
				<path d="m 80,227 v 12" />
				<path d="m 140,239 v 48" />
				<path d="m 160,239 v 12" />
				<path d="m 180,239 v 12" />
				<path d="m 140,251 h 60" />
				<path d="m 140,275 h 60" />
				<path d="m 180,275 v 12" />
			</g>
			<g
				id="titleblock-text-non-editable"
				style="font-size:3px;text-anchor:start;fill:#000000;font-family:osifont"
				xml:space="preserve">
				<text x="21" y="230">Created by:</text>
				<text x="81" y="230">Title:</text>
				<text x="21" y="242">Supplementary information:</text>
				<text x="141" y="242">Size:</text>
				<text x="161" y="242">Sheet:</text>
				<text x="181" y="242">Scale:</text>
				<text x="141" y="254">Part number:</text>
				<text x="141" y="266">Drawing number:</text>
				<text x="141" y="278">Date:</text>
				<text x="181" y="278">Revision:</text>
			</g>
			<g
				id="titleblock-text-editable"
				style="font-size:5px;text-anchor:middle;fill:#000000;font-family:osifont"
				xml:space="preserve">
				<text freecad:editable="AUTHOR NAME" x="50" y="236"><tspan>AUTHOR NAME</tspan></text>
				<text freecad:editable="DRAWING TITLE" x="140" y="236"><tspan>DRAWING TITLE</tspan></text>
				<text freecad:editable="SI-1" x="80" y="248"><tspan></tspan></text>
				<text freecad:editable="SI-2" x="80" y="255"><tspan></tspan></text>
				<text freecad:editable="FreeCAD DRAWING" x="80" y="262"><tspan>FreeCAD DRAWING</tspan></text>
				<text freecad:editable="SI-4" x="80" y="269"><tspan></tspan></text>
				<text freecad:editable="SI-5" x="80" y="276"><tspan></tspan></text>
				<text freecad:editable="SI-6" x="80" y="283"><tspan></tspan></text>
				<text freecad:editable="FC-SI" x="150" y="248"><tspan>A2</tspan></text>
				<text freecad:editable="FC-SH" x="170" y="248"><tspan>X / Y</tspan></text>
				<text freecad:editable="FC-SC" x="190" y="248"><tspan>SCALE</tspan></text>
				<text freecad:editable="PN" x="170" y="260"><tspan>PN</tspan></text>
				<text freecad:editable="DN" x="170" y="272"><tspan>DN</tspan></text>
				<text freecad:editable="FC-DATE" x="160" y="284"><tspan>DD/MM/YYYY</tspan></text>
				<text freecad:editable="FC-REV" x="190" y="284"><tspan>REV A</tspan></text>
			</g>
			<!-- Set display:none to hide FreeCAD Logo -->
			<g
				style="display:inline"
				id="freecad-logo"
				transform="translate(128.5,276)"
				fill-rule="evenodd"
				stroke="#000"
				stroke-width="0.35"
				fill="none">
					<path d="m0.1524 0.15254v8.8549h1.9744v-3.4652h1.396v-1.3661h-1.396v-1.4745h3.4391v-2.5441l-5.4135-0.005z"/>
					<path d="m7.7927 3.4504-0.50715-0.176-0.48387-1.2366-0.76115 0.04-0.34718 1.2787-0.4859 0.23269-1.2119-0.53015-0.51188 0.56882 0.65892 1.1485-0.18006 0.50567-1.2366 0.48387 0.044064 0.76263 1.2787 0.34718 0.23269 0.4859-0.53421 1.2104 0.56882 0.51188 1.1485-0.65891 0.50973 0.18155 0.4798 1.2351 0.7667-0.04258 0.34311-1.2802 0.4859-0.23269 1.2145 0.5357 0.51188-0.56882-0.65891-1.1485 0.17748-0.51122 1.2351-0.4798-0.03851-0.76521-1.2802-0.34311-0.23269-0.4859 0.53163-1.216-0.56881-0.51184zm-0.5715 1.2244 0.23576 0.13679 0.20426 0.18519 0.16353 0.22101 0.11763 0.24572 0.06916 0.26489 0.01146 0.27146-0.03921 0.27139-0.08948 0.25764-0.14234 0.23834-0.17964 0.20167-0.22101 0.16353-0.24572 0.11763-0.26489 0.06916-0.27295 0.01553-0.2719-0.04-0.2576-0.089-0.2383-0.143-0.2002-0.183-0.165-0.217-0.1177-0.246-0.0676-0.269-0.0156-0.273 0.039206-0.2714 0.089484-0.25764 0.14085-0.23427 0.18113-0.20574 0.22101-0.16352 0.24572-0.11763 0.26895-0.06768 0.27147-0.01146 0.27139 0.03921 0.25764 0.08948z"/>
			</g>
		</g>
	</g>
<g id="stage4_view"
   transform="rotate(0,212,212) translate(212,212) scale(1,1)"
  >
<g   fill="none"
   stroke="rgb(0, 0, 0)"
   stroke-linecap="butt"
   stroke-linejoin="miter"
   stroke-width="0.350000"
   transform="scale(1,-1)"
  >
<path id= "1" d=" M 66.0355 -154.424 L 154.424 -66.0355 " />
<path d="M62.5 -155.888 A5 5 0 0 1 66.0355 -154.424" /><path d="M154.424 -66.0355 A5 5 0 0 1 155.888 -62.5" /><path id= "4" d=" M -62.5 -155.888 L 62.5 -155.888 " />
<path id= "5" d=" M 155.888 -62.5 L 155.888 62.5 " />
<path d="M-66.0355 -154.424 A5 5 0 0 1 -62.5 -155.888" /><path d="M155.888 62.5 A5 5 0 0 1 154.424 66.0355" /><path id= "8" d=" M -154.424 -66.0355 L -66.0355 -154.424 " />
<path id= "9" d=" M 154.424 66.0355 L 66.0355 154.424 " />
<path d="M-155.888 -62.5 A5 5 0 0 1 -154.424 -66.0355" /><path d="M66.0355 154.424 A5 5 0 0 1 62.5 155.888" /><path id= "12" d=" M -155.888 62.5 L -155.888 -62.5 " />
<path id= "13" d=" M 62.5 155.888 L -62.5 155.888 " />
<path d="M-154.424 66.0355 A5 5 0 0 1 -155.888 62.5" /><path d="M-62.5 155.888 A5 5 0 0 1 -66.0355 154.424" /><path id= "16" d=" M -66.0355 154.424 L -154.424 66.0355 " />
<circle cx ="-115.888" cy ="-47.5" r ="3" /><path id= "18" d=" M -93.3883 -41.5 L -93.3883 -33.5 " />
<path id= "19" d=" M -87.3883 -41.5 L -93.3883 -41.5 " />
<path id= "20" d=" M -93.3883 -33.5 L -87.3883 -33.5 " />
<path id= "21" d=" M -87.3883 -33.5 L -87.3883 -41.5 " />
<path id= "22" d=" M -93.3883 33.5 L -93.3883 41.5 " />
<path id= "23" d=" M -87.3883 33.5 L -93.3883 33.5 " />
<path id= "24" d=" M -93.3883 41.5 L -87.3883 41.5 " />
<path id= "25" d=" M -87.3883 41.5 L -87.3883 33.5 " />
<path d="M-98.3883 26 A7.5 7.5 0 1 1 -113.388 26" /><path id= "27" d=" M -113.388 26 L -113.388 -26 " />
<path d="M-113.388 -26 A7.5 7.5 0 0 1 -98.3883 -26" /><path id= "29" d=" M -98.3883 26 L -98.3883 -26 " />
<circle cx ="-35" cy ="35" r ="3" /><path id= "31" d=" M -75.8883 -6 L -75.8883 6 " />
<path id= "32" d=" M -69.8883 -6 L -75.8883 -6 " />
<path id= "33" d=" M -69.8883 6 L -69.8883 -6 " />
<path id= "34" d=" M -75.8883 6 L -69.8883 6 " />
<circle cx ="-35" cy ="-35" r ="3" /><circle cx ="0" cy ="0" r ="3" /><path id= "37" d=" M -3 -30 L -3 -22 " />
<path id= "38" d=" M 3 -30 L -3 -30 " />
<path id= "39" d=" M -3 -22 L 3 -22 " />
<path id= "40" d=" M 3 -22 L 3 -30 " />
<circle cx ="0" cy ="-47.5" r ="3" /><path id= "42" d=" M -37.1789 109 L -37.1789 115 " />
<path id= "43" d=" M -29.1789 109 L -37.1789 109 " />
<path id= "44" d=" M -37.1789 115 L -29.1789 115 " />
<path id= "45" d=" M -29.1789 115 L -29.1789 109 " />
<circle cx ="-29.1789" cy ="94.1942" r ="3" /><path id= "47" d=" M -62.1789 67.5 L -62.1789 73.5 " />
<path id= "48" d=" M -54.1789 67.5 L -62.1789 67.5 " />
<path id= "49" d=" M -62.1789 73.5 L -54.1789 73.5 " />
<path id= "50" d=" M -54.1789 73.5 L -54.1789 67.5 " />
<circle cx ="-115.888" cy ="47.5" r ="3" /><path id= "52" d=" M -106.455 97.0334 L -100.799 102.69 " />
<path id= "53" d=" M -102.213 92.7907 L -106.455 97.0334 " />
<path id= "54" d=" M -100.799 102.69 L -96.556 98.4476 " />
<path id= "55" d=" M -96.556 98.4476 L -102.213 92.7907 " />
<circle cx ="-115.888" cy ="83.3579" r ="3" /><path id= "57" d=" M 96.556 98.4476 L 100.799 102.69 " />
<path id= "58" d=" M 102.213 92.7907 L 96.556 98.4476 " />
<path id= "59" d=" M 100.799 102.69 L 106.455 97.0334 " />
<path id= "60" d=" M 106.455 97.0334 L 102.213 92.7907 " />
<circle cx ="29.1789" cy ="94.1942" r ="3" /><circle cx ="35" cy ="35" r ="3" /><path id= "63" d=" M 87.3883 33.5 L 87.3883 41.5 " />
<path id= "64" d=" M 93.3883 33.5 L 87.3883 33.5 " />
<path id= "65" d=" M 87.3883 41.5 L 93.3883 41.5 " />
<path id= "66" d=" M 93.3883 41.5 L 93.3883 33.5 " />
<circle cx ="75" cy ="35" r ="2.5" /><path id= "68" d=" M 75 50 L 75 58.4 " />
<path id= "69" d=" M 80.2 50 L 75 50 " />
<path id= "70" d=" M 80.2 58.4 L 80.2 50 " />
<path id= "71" d=" M 75 58.4 L 80.2 58.4 " />
<path id= "72" d=" M 54.1789 67.5 L 54.1789 73.5 " />
<path id= "73" d=" M 62.1789 67.5 L 54.1789 67.5 " />
<path id= "74" d=" M 54.1789 73.5 L 62.1789 73.5 " />
<path id= "75" d=" M 62.1789 73.5 L 62.1789 67.5 " />
<path id= "76" d=" M -3 101.666 L -3 109.666 " />
<path id= "77" d=" M 3 101.666 L -3 101.666 " />
<path id= "78" d=" M -3 109.666 L 3 109.666 " />
<path id= "79" d=" M 3 109.666 L 3 101.666 " />
<circle cx ="0" cy ="47.5" r ="3" /><path id= "81" d=" M 87.3883 -41.5 L 87.3883 -33.5 " />
<path id= "82" d=" M 93.3883 -41.5 L 87.3883 -41.5 " />
<path id= "83" d=" M 87.3883 -33.5 L 93.3883 -33.5 " />
<path id= "84" d=" M 93.3883 -33.5 L 93.3883 -41.5 " />
<circle cx ="35" cy ="-35" r ="3" /><circle cx ="75" cy ="-25" r ="4" /><circle cx ="75" cy ="25" r ="2.5" /><path id= "88" d=" M 29.1789 109 L 29.1789 115 " />
<path id= "89" d=" M 37.1789 109 L 29.1789 109 " />
<path id= "90" d=" M 29.1789 115 L 37.1789 115 " />
<path id= "91" d=" M 37.1789 115 L 37.1789 109 " />
<path id= "92" d=" M 25.1789 -143.888 L 25.1789 -137.888 " />
<path id= "93" d=" M 33.1789 -143.888 L 25.1789 -143.888 " />
<path id= "94" d=" M 25.1789 -137.888 L 33.1789 -137.888 " />
<path id= "95" d=" M 33.1789 -137.888 L 33.1789 -143.888 " />
<path id= "96" d=" M -77.6902 -125.799 L -73.4476 -121.556 " />
<path id= "97" d=" M -72.0334 -131.455 L -77.6902 -125.799 " />
<path id= "98" d=" M -73.4476 -121.556 L -67.7907 -127.213 " />
<path id= "99" d=" M -67.7907 -127.213 L -72.0334 -131.455 " />
<circle cx ="-58.3579" cy ="-140.888" r ="3" /><path id= "101" d=" M -33.1789 -143.888 L -33.1789 -137.888 " />
<path id= "102" d=" M -25.1789 -143.888 L -33.1789 -143.888 " />
<path id= "103" d=" M -33.1789 -137.888 L -25.1789 -137.888 " />
<path id= "104" d=" M -25.1789 -137.888 L -25.1789 -143.888 " />
<circle cx ="29.1789" cy ="-94.1942" r ="3" /><circle cx ="-29.1789" cy ="-94.1942" r ="3" /><circle cx ="-70" cy ="-85" r ="8" /><path id= "108" d=" M 96.556 -98.4476 L 102.213 -92.7907 " />
<path id= "109" d=" M 100.799 -102.69 L 96.556 -98.4476 " />
<path id= "110" d=" M 102.213 -92.7907 L 106.455 -97.0334 " />
<path id= "111" d=" M 106.455 -97.0334 L 100.799 -102.69 " />
<path id= "112" d=" M 65 -98.5 L 65 -77.5 " />
<path id= "113" d=" M 78.2 -98.5 L 65 -98.5 " />
<path id= "114" d=" M 78.2 -77.5 L 78.2 -98.5 " />
<path id= "115" d=" M 65 -77.5 L 78.2 -77.5 " />
<circle cx ="58.3579" cy ="-140.888" r ="3" /><path id= "117" d=" M 67.7907 -127.213 L 73.4476 -121.556 " />
<path id= "118" d=" M 72.0334 -131.455 L 67.7907 -127.213 " />
<path id= "119" d=" M 73.4476 -121.556 L 77.6902 -125.799 " />
<path id= "120" d=" M 77.6902 -125.799 L 72.0334 -131.455 " />
<circle cx ="-115.888" cy ="-83.3579" r ="3" /><path id= "122" d=" M -106.455 -97.0334 L -102.213 -92.7907 " />
<path id= "123" d=" M -100.799 -102.69 L -106.455 -97.0334 " />
<path id= "124" d=" M -102.213 -92.7907 L -96.556 -98.4476 " />
<path id= "125" d=" M -96.556 -98.4476 L -100.799 -102.69 " />
<path id= "126" d=" M -3 -73 L -3 -65 " />
<path id= "127" d=" M 3 -73 L -3 -73 " />
<path id= "128" d=" M -3 -65 L 3 -65 " />
<path id= "129" d=" M 3 -65 L 3 -73 " />
<circle cx ="-58.3579" cy ="140.888" r ="3" /><path id= "131" d=" M -33.1789 137.888 L -33.1789 143.888 " />
<path id= "132" d=" M -25.1789 137.888 L -33.1789 137.888 " />
<path id= "133" d=" M -33.1789 143.888 L -25.1789 143.888 " />
<path id= "134" d=" M -25.1789 143.888 L -25.1789 137.888 " />
<circle cx ="58.3579" cy ="140.888" r ="3" /><path id= "136" d=" M 25.1789 137.888 L 25.1789 143.888 " />
<path id= "137" d=" M 33.1789 137.888 L 25.1789 137.888 " />
<path id= "138" d=" M 25.1789 143.888 L 33.1789 143.888 " />
<path id= "139" d=" M 33.1789 143.888 L 33.1789 137.888 " />
<path id= "140" d=" M 67.7907 127.213 L 72.0334 131.455 " />
<path id= "141" d=" M 73.4476 121.556 L 67.7907 127.213 " />
<path id= "142" d=" M 72.0334 131.455 L 77.6902 125.799 " />
<path id= "143" d=" M 77.6902 125.799 L 73.4476 121.556 " />
<path id= "144" d=" M -73.4476 121.556 L -77.6902 125.799 " />
<path id= "145" d=" M -67.7907 127.213 L -73.4476 121.556 " />
<path id= "146" d=" M -77.6902 125.799 L -72.0334 131.455 " />
<path id= "147" d=" M -72.0334 131.455 L -67.7907 127.213 " />
<circle cx ="115.888" cy ="-83.3579" r ="3" /><circle cx ="115.888" cy ="-47.5" r ="3" /><circle cx ="115.888" cy ="83.3579" r ="3" /><circle cx ="115.888" cy ="47.5" r ="3" /><path d="M113.388 26 A7.5 7.5 0 1 1 98.3883 26" /><path id= "153" d=" M 98.3883 26 L 98.3883 -26 " />
<path d="M98.3883 -26 A7.5 7.5 0 0 1 113.388 -26" /><path id= "155" d=" M 113.388 26 L 113.388 -26 " />
<path id= "156" d=" M -135.221 -68.2681 L -130.978 -64.0255 " />
<path id= "157" d=" M -129.564 -73.925 L -135.221 -68.2681 " />
<path id= "158" d=" M -130.978 -64.0255 L -125.321 -69.6824 " />
<path id= "159" d=" M -125.321 -69.6824 L -129.564 -73.925 " />
<path id= "160" d=" M -130.978 64.0255 L -135.221 68.2681 " />
<path id= "161" d=" M -125.321 69.6824 L -130.978 64.0255 " />
<path id= "162" d=" M -135.221 68.2681 L -129.564 73.925 " />
<path id= "163" d=" M -129.564 73.925 L -125.321 69.6824 " />
<path id= "164" d=" M 125.321 69.6824 L 129.564 73.925 " />
<path id= "165" d=" M 130.978 64.0255 L 125.321 69.6824 " />
<path id= "166" d=" M 129.564 73.925 L 135.221 68.2681 " />
<path id= "167" d=" M 135.221 68.2681 L 130.978 64.0255 " />
<path id= "168" d=" M 125.321 -69.6824 L 130.978 -64.0255 " />
<path id= "169" d=" M 129.564 -73.925 L 125.321 -69.6824 " />
<path id= "170" d=" M 130.978 -64.0255 L 135.221 -68.2681 " />
<path id= "171" d=" M 135.221 -68.2681 L 129.564 -73.925 " />
</g>
</g>



</svg>

